<?xml version="1.0" encoding="utf-8"?>
<!-- Generator: Adobe Illustrator 23.1.1, SVG Export Plug-In . SVG Version: 6.00 Build 0)  -->
<svg version="1.1" id="Layer_1" xmlns="http://www.w3.org/2000/svg" xmlns:xlink="http://www.w3.org/1999/xlink" x="0px" y="0px"
	 viewBox="0 0 500 150" style="enable-background:new 0 0 500 150;" xml:space="preserve">
<style type="text/css">
	.st0{fill:#FFFFFF;}
	.st1{fill:none;stroke:#FFFFFF;stroke-width:10;stroke-miterlimit:10;}
</style>
<g>
	<path class="st0" d="M27.7,50.1h22.9c4.9,0,8.9,1.3,11.9,3.9c3.7,2.9,5.7,7.1,5.8,12.5c-0.1,8-3.9,13.4-11.3,16.3l13.6,26H60.1
		L48,83.6H36.6v25.1h-8.9V50.1z M36.6,75.8H50c3.3-0.1,5.8-1,7.5-2.9c1.6-1.7,2.5-3.9,2.5-6.4c-0.1-3.1-1-5.3-2.9-6.6
		c-1.5-1.2-3.7-1.8-6.5-1.8H36.6V75.8z"/>
	<path class="st0" d="M83.5,91c0,3.4,1,5.9,2.9,7.6c1.8,1.8,4.2,2.7,7.1,2.7c3.4,0,6.4-1.4,9.1-4.1l6.1,5.2c-4.3,4.6-9.3,6.8-15,6.8
		c-2.2,0-4.3-0.3-6.4-1c-1-0.3-2.1-0.8-3.1-1.4c-1-0.5-2-1.1-2.9-1.9c-1.8-1.6-3.2-3.7-4.3-6.5c-1.2-2.7-1.8-6.2-1.8-10.5
		c0-4.1,0.5-7.6,1.6-10.3c1-2.8,2.4-5,4-6.6c1.7-1.6,3.5-2.8,5.6-3.5c2-0.7,4-1.1,6-1.1c4.8,0.1,8.8,1.6,12.1,4.7
		c3.4,3.1,5.1,7.5,5.1,13V91H83.5z M101.2,84.1c-0.1-3.2-1-5.7-2.6-7.4c-1.6-1.6-3.7-2.4-6.2-2.4c-2.5,0-4.6,0.8-6.2,2.4
		c-1.6,1.7-2.5,4.1-2.6,7.4H101.2z"/>
	<path class="st0" d="M140.3,105h-0.2c-0.8,1.4-2,2.5-3.6,3.1c-1.6,0.7-3.8,1-6.7,1c-4.7-0.1-8.3-1.3-10.8-3.7c-2.7-2.4-4-5.4-4-9.1
		c0-3.5,1.2-6.4,3.5-8.7c2.3-2.4,5.7-3.6,10.1-3.6h11.6v-4.4c0.1-3.7-2.8-5.5-8.6-5.3c-2.1,0-3.7,0.2-4.9,0.6
		c-1.3,0.5-2.3,1.4-3,2.6l-6.6-5c3.2-4.2,7.9-6.2,14.1-6.1c5.3-0.1,9.5,0.9,12.6,3c3.1,2.1,4.7,5.7,4.8,10.8v28.5h-8.4V105z
		 M140.3,91h-10.1c-4.9,0.1-7.3,1.8-7.2,5c0,1.4,0.6,2.6,1.9,3.6c1.2,1.1,3.2,1.6,6,1.6c3.5,0.1,6-0.4,7.4-1.2c1.3-0.9,2-2.9,2-6V91
		z"/>
	<path class="st0" d="M190.3,101.9c-1.8,2.1-4,3.8-6.4,5.1c-2.5,1.4-5.3,2.1-8.6,2.1c-4.9,0-9.3-1.7-13-5c-3.9-3.4-5.8-8.8-6-16.3
		c0.1-7.6,2.1-13.1,6-16.5c3.7-3.4,8.1-5,13-4.9c3.2,0.1,6.1,0.7,8.6,2c2.5,1.3,4.6,3.1,6.4,5.3l-6.2,5.5c-2.1-2.8-4.9-4.3-8.5-4.4
		c-7.1-0.1-10.8,4.2-10.9,13c0.1,8.7,3.7,13,10.9,12.9c3.5-0.1,6.4-1.5,8.5-4.3L190.3,101.9z"/>
	<path class="st0" d="M196.6,54.2h8.4v12.7h6.1v6.4H205v24.3c-0.1,2.1,0.9,3.2,3,3.1h3.1v7.9h-4.4c-3,0-5.4-0.9-7.2-2.7
		c-1.9-1.7-2.9-4.3-2.9-7.6V73.3h-4.2v-6.4h4.2V54.2z"/>
	<path class="st0" d="M239.5,50.1h8.4l16.8,38.2l16.5-38.2h8.4v58.6h-8.9V72.1h-0.2l-12.3,28.2h-7.4l-12.3-28.2h-0.2v36.6h-8.9V50.1
		z"/>
	<path class="st0" d="M299.1,87.8c0-4.4,0.4-7.8,1.1-10.1c0.8-2.3,1.9-4.2,3.5-5.8c1.2-1.4,2.8-2.6,4.8-3.7c2-1,4.7-1.6,7.8-1.6
		c3.3,0.1,6,0.6,8,1.6c2,1.1,3.6,2.3,4.7,3.7c1.7,1.6,2.8,3.5,3.5,5.8c0.7,2.4,1,5.7,1,10.1s-0.3,7.8-1,10.1c-0.7,2.3-1.9,4.3-3.5,6
		c-0.5,0.6-1.2,1.2-2,1.8c-0.7,0.7-1.6,1.2-2.7,1.7c-2,1.2-4.7,1.8-8,1.8c-3.2-0.1-5.8-0.7-7.8-1.8c-2.1-1-3.7-2.2-4.8-3.5
		c-1.6-1.7-2.7-3.7-3.5-6C299.5,95.5,299.1,92.2,299.1,87.8z M325.2,87.9c0-3-0.1-5.1-0.4-6.5c-0.3-1.3-0.8-2.5-1.6-3.5
		c-0.6-0.9-1.5-1.7-2.7-2.2c-1.2-0.6-2.5-0.8-4-0.8c-1.4,0-2.7,0.3-3.9,0.8c-1.2,0.5-2.1,1.3-2.8,2.2c-0.7,1-1.2,2.1-1.6,3.5
		c-0.3,1.4-0.5,3.5-0.5,6.4c0,2.9,0.2,5,0.5,6.4c0.3,1.4,0.8,2.6,1.6,3.6c0.7,0.8,1.7,1.5,2.8,2.1c1.2,0.6,2.5,0.9,3.9,0.9
		c1.5,0,2.9-0.3,4-0.9c1.2-0.6,2.1-1.3,2.7-2.1c0.8-1,1.4-2.3,1.6-3.6C325,92.8,325.2,90.7,325.2,87.9z"/>
	<path class="st0" d="M336.5,66.9h8.9l9.8,29.2h0.2l9.8-29.2h8.9l-15.3,41.8h-6.9L336.5,66.9z"/>
	<path class="st0" d="M379.2,50.1h8.4v8.4h-8.4V50.1z M379.2,66.9h8.4v41.8h-8.4V66.9z"/>
	<path class="st0" d="M405.1,91c0,3.4,1,5.9,2.9,7.6c1.8,1.8,4.2,2.7,7.1,2.7c3.4,0,6.4-1.4,9.1-4.1l6.1,5.2
		c-4.3,4.6-9.3,6.8-15,6.8c-2.2,0-4.3-0.3-6.4-1c-1-0.3-2.1-0.8-3.1-1.4c-1-0.5-2-1.1-2.9-1.9c-1.8-1.6-3.2-3.7-4.3-6.5
		c-1.2-2.7-1.8-6.2-1.8-10.5c0-4.1,0.5-7.6,1.6-10.3c1-2.8,2.4-5,4-6.6c1.7-1.6,3.5-2.8,5.6-3.5c2-0.7,4-1.1,6-1.1
		c4.8,0.1,8.8,1.6,12.1,4.7c3.4,3.1,5.1,7.5,5.1,13V91H405.1z M422.7,84.1c-0.1-3.2-1-5.7-2.6-7.4c-1.6-1.6-3.7-2.4-6.2-2.4
		c-2.5,0-4.6,0.8-6.2,2.4c-1.6,1.7-2.5,4.1-2.6,7.4H422.7z"/>
	<path class="st0" d="M454.3,101.3c2.4,0,4.4-0.5,5.9-1.4s2.3-2.3,2.3-3.9c0-1.5-0.5-2.5-1.4-3.1c-0.9-0.6-2.2-1-3.7-1l-7.4-0.6
		c-3.5-0.3-6.4-1.5-8.6-3.5c-2.3-2-3.4-4.8-3.5-8.3c0.1-4.3,1.6-7.5,4.5-9.7c2.9-2.1,6.6-3.2,11-3.2c1.9,0,3.7,0.1,5.2,0.4
		c1.5,0.3,3,0.6,4.3,1.1c2.6,1,4.9,2.5,6.9,4.2l-5.2,6.1c-1.6-1.2-3.3-2.1-5.1-2.9c-1.8-0.7-3.8-1-6.1-1c-2.6,0-4.5,0.5-5.5,1.4
		c-1.1,0.9-1.6,2.1-1.6,3.6c-0.1,0.9,0.4,1.8,1.2,2.5c0.8,0.8,2.2,1.3,4.3,1.5l6.9,0.5c4.3,0.3,7.5,1.6,9.4,3.9
		c1.8,2.3,2.7,5.1,2.7,8.6c-0.1,4-1.7,7.2-4.9,9.4c-3.2,2.3-7.3,3.4-12.3,3.5c-6.8,0-12.9-2.5-18.4-7.5l5.9-5.8
		C444.5,99.5,448.9,101.3,454.3,101.3z"/>
</g>
<path class="st1" d="M479.5,142.8h-459c-6.6,0-12-5.4-12-12V19.2c0-6.6,5.4-12,12-12h459c6.6,0,12,5.4,12,12v111.5
	C491.5,137.4,486.1,142.8,479.5,142.8z"/>
</svg>
